<?xml version="1.0" encoding="UTF-8" standalone="no"?>
<svg width="2400px" height="827px" viewBox="0 0 2400 827" version="1.1" xmlns="http://www.w3.org/2000/svg" xmlns:xlink="http://www.w3.org/1999/xlink" xmlns:sketch="http://www.bohemiancoding.com/sketch/ns">
    <!-- Generator: Sketch 3.5.1 (25234) - http://www.bohemiancoding.com/sketch -->
    <title>Artboard</title>
    <desc>Created with Sketch.</desc>
    <defs></defs>
    <g id="Page-1" stroke="none" stroke-width="1" fill="none" fill-rule="evenodd" sketch:type="MSPage">
        <g id="Artboard" sketch:type="MSArtboardGroup">
            <path d="M7.2919,146.323861 C2.57937852,134.411993 0,121.480298 0,108 C0,47.9055318 47.9055318,0 108,0 C108.662318,0 109.323311,0.00622657132 109.982925,0.0186267885 C110.653792,0.00622705059 111.326168,0 112,0 L810,0 C811.161411,0 812.318503,0.0185085536 813.470998,0.0552467827 C814.642445,0.0185060311 815.818868,0 817,0 C875.094468,0 923,47.9055318 923,108 C923,121.628528 920.363584,134.696322 915.57769,146.716441 C913.389779,153.289355 910.538026,159.746523 907,166 L558,770 C550.841357,782.378751 541.640057,792.798787 531.088664,801.086098 C512.470786,817.198523 488.277722,827 462,827 C430.542033,827 402.424155,813.872622 382.76977,793.028161 C376.006684,786.348901 370.004651,778.653078 365,770 L16,166 C12.3911611,159.622483 9.49639648,153.032629 7.2919,146.323861 L7.2919,146.323861 Z M291.561258,214 L631.438742,214 L461.5,508.106017 L291.561258,214 L291.561258,214 Z M720,60 L112,60 C111.052273,60 110.12686,60.0271075 109,60 C108.307633,60.0270996 107.400274,60 106,60 C80.0345829,60 59,81.0426168 59,108 C59,132.957383 80.0345829,154 106,154 C107.400671,154 108.308421,153.972877 109,154 C110.127674,153.972885 111.052697,154 112,154 L666,154 L720,60 Z M496,568 L772,89 C772.989844,87.646019 773.640472,86.6123655 774,86 C782.166178,70.327661 798.027967,60 817,60 C841.975945,60 863,81.0522093 863,108 C863,117.210126 859.959782,126.255301 855,134 C854.449418,134.414742 854.088154,135.07722 854,136 L550,662 L496,568 Z M222,214 L499,693 C499.366796,694.312512 499.968288,695.462812 501,697 C505.242851,704.046648 508,712.920474 508,723 C508,747.957383 486.983757,769 462,769 C442.27359,769 425.867243,757.790505 418,742 C418.067204,741.294425 417.732853,740.740933 417,740 L114,214 L222,214 Z" id="Oval-49-Copy-4" fill="#01B2D0" sketch:type="MSShapeGroup"></path>
            <path d="M1314.09129,541.951807 C1309.80911,551.45654 1305.17015,559.297827 1300.17427,565.475904 C1295.1784,571.65398 1289.9447,576.525083 1284.47303,580.089357 C1279.00136,583.653632 1273.41082,586.02978 1267.70124,587.217871 C1261.99167,588.405963 1256.75798,589 1252,589 C1246.76623,589 1241.41358,588.405963 1235.94191,587.217871 C1230.47024,586.02978 1224.99864,583.653632 1219.52697,580.089357 C1214.0553,576.525083 1208.8216,571.65398 1203.82573,565.475904 C1198.82985,559.297827 1194.19089,551.45654 1189.90871,541.951807 L1085.70954,298.869478 C1081.90316,289.839982 1080,281.76108 1080,274.63253 C1080,262.751614 1084.16317,253.009409 1092.48963,245.405622 C1100.81609,237.801836 1111.16453,234 1123.53527,234 C1130.19644,234 1137.45224,236.019725 1145.3029,240.059237 C1153.15357,244.098748 1159.93358,253.722146 1165.64315,268.929719 L1252.71369,493.25846 L1340.49793,268.216867 C1346.2075,253.484531 1352.86856,244.098748 1360.48133,240.059237 C1368.09409,236.019725 1375.23095,234 1381.89212,234 C1394.26286,234 1404.3734,237.801836 1412.22407,245.405622 C1420.07473,253.009409 1424,262.276384 1424,273.206827 C1424,275.583011 1423.64316,278.79081 1422.92946,282.830321 C1422.21576,286.869833 1420.66944,291.740935 1418.29046,297.443775 L1314.09129,541.951807 Z" id="vero-copy" fill="#354254" sketch:type="MSShapeGroup"></path>
            <path d="M2400,410.102362 C2400,436.657613 2395.22195,460.883093 2385.66571,482.779528 C2376.10947,504.675963 2363.17377,523.427415 2346.85824,539.034449 C2330.5427,554.641482 2311.19743,566.870691 2288.82184,575.722441 C2266.44625,584.574191 2242.67254,589 2217.5,589 C2192.32746,589 2168.55375,584.574191 2146.17816,575.722441 C2123.80257,566.870691 2104.4573,554.641482 2088.14176,539.034449 C2071.82623,523.427415 2058.89053,504.675963 2049.33429,482.779528 C2039.77805,460.883093 2035,436.657613 2035,410.102362 C2035,383.547111 2039.77805,359.4381 2049.33429,337.774606 C2058.89053,316.111112 2071.82623,297.592597 2088.14176,282.218504 C2104.4573,266.844411 2123.80257,254.964609 2146.17816,246.57874 C2168.55375,238.192871 2192.32746,234 2217.5,234 C2242.67254,234 2266.44625,238.192871 2288.82184,246.57874 C2311.19743,254.964609 2330.5427,266.844411 2346.85824,282.218504 C2363.17377,297.592597 2376.10947,316.111112 2385.66571,337.774606 C2395.22195,359.4381 2400,383.547111 2400,410.102362 Z M2315,409.303226 C2315,396.296709 2313.0228,383.406515 2309.06835,370.632258 C2305.11389,357.858001 2299.18229,346.361341 2291.27338,336.141935 C2283.36447,325.92253 2273.36217,317.677451 2261.26619,311.406452 C2249.1702,305.135453 2234.74829,302 2218,302 C2201.25171,302 2186.8298,305.135453 2174.73381,311.406452 C2162.63783,317.677451 2152.63553,325.92253 2144.72662,336.141935 C2136.81771,346.361341 2130.88611,357.858001 2126.93165,370.632258 C2122.9772,383.406515 2121,396.296709 2121,409.303226 C2121,422.309742 2122.9772,435.316064 2126.93165,448.322581 C2130.88611,461.329097 2136.81771,472.941884 2144.72662,483.16129 C2152.63553,493.380696 2162.63783,501.741903 2174.73381,508.245161 C2186.8298,514.74842 2201.25171,518 2218,518 C2234.74829,518 2249.1702,514.74842 2261.26619,508.245161 C2273.36217,501.741903 2283.36447,493.380696 2291.27338,483.16129 C2299.18229,472.941884 2305.11389,461.329097 2309.06835,448.322581 C2313.0228,435.316064 2315,422.309742 2315,409.303226 Z" id="Path" fill="#354254" sketch:type="MSShapeGroup"></path>
            <path d="M1902.63003,541.713718 C1902.63003,551.594483 1901.102,559.710704 1898.0459,566.062624 C1894.9898,572.414545 1891.2285,577.237227 1886.7619,580.530815 C1882.29529,583.824403 1877.59367,586.059305 1872.65689,587.235586 C1867.72012,588.411868 1863.6062,589 1860.31501,589 C1856.55366,589 1852.3222,588.411868 1847.62051,587.235586 C1842.91882,586.059305 1838.33474,583.824403 1833.86813,580.530815 C1829.40152,577.237227 1825.64023,572.414545 1822.58413,566.062624 C1819.52803,559.710704 1818,551.594483 1818,541.713718 L1818,282.697813 C1818,273.287561 1819.52803,265.641845 1822.58413,259.760437 C1825.64023,253.87903 1829.28398,249.2916 1833.5155,245.998012 C1837.74703,242.704424 1842.09603,240.469522 1846.56263,239.293241 C1851.02924,238.116959 1854.90808,237.528827 1858.19926,237.528827 C1861.49045,237.528827 1865.48682,238.116959 1870.18852,239.293241 C1874.89021,240.469522 1879.35675,242.704424 1883.58827,245.998012 C1887.81979,249.2916 1891.46355,253.87903 1894.51965,259.760437 C1897.57575,265.641845 1899.10378,273.287561 1899.10378,282.697813 L1899.10378,300.341948 L1900.51428,300.341948 C1907.09664,281.991956 1918.26299,266.347646 1934.01366,253.408549 C1949.76433,240.469452 1967.98311,234 1988.67055,234 C2001.36512,234 2011.82623,237.175913 2020.05419,243.527833 C2028.28215,249.879753 2032.39607,259.172238 2032.39607,271.405567 C2032.39607,282.227357 2028.86985,291.755095 2021.81731,299.989066 C2014.76478,308.223037 2003.01072,312.33996 1986.5548,312.33996 C1959.75516,312.33996 1939.06803,321.397192 1924.49278,339.511928 C1909.91754,357.626664 1902.63003,380.799064 1902.63003,409.029821 L1902.63003,541.713718 Z" id="Path" fill="#354254" sketch:type="MSShapeGroup"></path>
            <path d="M1520.62887,438.055118 C1521.55808,450.16804 1524.69413,461.232561 1530.03711,471.249016 C1535.3801,481.26547 1542.46525,489.88415 1551.29278,497.105315 C1560.12032,504.32648 1570.10922,510.033444 1581.25979,514.226378 C1592.41037,518.419312 1604.02537,520.515748 1616.10515,520.515748 C1633.76023,520.515748 1648.27898,517.953438 1659.66186,512.82874 C1671.04473,507.704043 1682.07898,500.715924 1692.76495,491.864173 C1698.80484,486.739476 1703.91544,483.478353 1708.09691,482.080709 C1712.27837,480.683064 1716.69207,479.984252 1721.33814,479.984252 C1730.63029,479.984252 1738.52849,483.012437 1745.03299,489.068898 C1751.53749,495.125358 1754.78969,503.278164 1754.78969,513.527559 C1754.78969,517.254612 1753.86049,521.913358 1752.00206,527.503937 C1750.14363,533.094516 1746.42683,538.452074 1740.85155,543.576772 C1724.5903,559.416746 1706.58704,570.947142 1686.84124,578.168307 C1667.09543,585.389472 1643.74928,589 1616.80206,589 C1590.78406,589 1566.85715,584.923597 1545.02062,576.770669 C1523.18408,568.617741 1504.25163,557.087345 1488.22268,542.179134 C1472.19373,527.270923 1459.64953,508.985345 1450.58969,487.32185 C1441.52985,465.658356 1437,441.083471 1437,413.596457 C1437,386.575324 1441.52985,362.000439 1450.58969,339.871063 C1459.64953,317.741687 1472.07758,298.873766 1487.87423,283.266732 C1503.67087,267.659699 1522.37103,255.546959 1543.97526,246.92815 C1565.57949,238.30934 1588.92565,234 1614.01443,234 C1633.99254,234 1653.04115,236.911716 1671.16082,242.735236 C1689.2805,248.558756 1705.30921,257.410374 1719.24742,269.290354 C1733.18564,281.170335 1744.91679,296.194791 1754.44124,314.364173 C1763.96568,332.533555 1770.35394,353.963787 1773.60619,378.655512 C1774.07079,382.382565 1774.41924,385.527218 1774.65155,388.089567 C1774.88385,390.651916 1775,393.330695 1775,396.125984 C1775,411.034195 1771.16705,421.749311 1763.50103,428.271654 C1755.83501,434.793996 1745.03306,438.055118 1731.09485,438.055118 L1520.62887,438.055118 Z M1693,379 C1693,368.160865 1691.48511,357.793153 1688.45528,347.896552 C1685.42546,337.999951 1680.64773,329.281647 1674.12195,321.741379 C1667.59617,314.201112 1659.32254,308.192551 1649.30081,303.715517 C1639.27908,299.238483 1627.50955,297 1613.99187,297 C1588.82101,297 1567.49602,304.657969 1550.01626,319.974138 C1532.5365,335.290306 1522.86451,354.965397 1521,379 L1693,379 Z" id="Path" fill="#354254" sketch:type="MSShapeGroup"></path>
        </g>
    </g>
</svg>